<?xml version="1.0" standalone="no"?>
<!DOCTYPE svg PUBLIC "-//W3C//DTD SVG 20010904//EN"
 "http://www.w3.org/TR/2001/REC-SVG-20010904/DTD/svg10.dtd">
<svg version="1.0" xmlns="http://www.w3.org/2000/svg"
 width="30.000000pt" height="30.000000pt" viewBox="0 0 30.000000 30.000000"
 preserveAspectRatio="xMidYMid meet">

<g transform="translate(0.000000,30.000000) scale(0.100000,-0.100000)"
fill="#fd4d05" stroke="none">
<path d="M74 291 c-11 -5 -33 -24 -48 -42 -74 -88 29 -221 136 -176 l36 15 43
-44 c23 -24 46 -41 52 -37 5 3 -11 26 -36 52 l-45 46 15 35 c18 42 6 95 -31
129 -26 25 -89 36 -122 22z m111 -46 c58 -57 15 -155 -67 -155 -54 0 -88 35
-88 90 0 56 34 90 90 90 30 0 47 -6 65 -25z"/>
</g>
</svg>
